<?xml version="1.0" encoding="utf-8"?>
<!-- Generator: Adobe Illustrator 21.1.0, SVG Export Plug-In . SVG Version: 6.00 Build 0)  -->
<svg version="1.1" id="Layer_1" xmlns="http://www.w3.org/2000/svg" xmlns:xlink="http://www.w3.org/1999/xlink" x="0px" y="0px"
	 viewBox="0 0 182 689" style="enable-background:new 0 0 182 689;" xml:space="preserve">
<style type="text/css">
	.st0{fill:none;stroke:#FFFFFF;stroke-width:5.0045;stroke-miterlimit:10;}
</style>
<path class="st0" d="M53.8,681c0.2-3.3-0.2-5.4,0.5-6.8c11.3-20.4,5.1-41.3,1.6-61.9c-3.5-20.6-8.3-41.1-12.1-61.7
	c-1.2-6.3-1.5-13-1.1-19.4c2.5-43.9,1.7-87.5-6.6-131C9.3,391.8,4.2,391.5,8,355.4c1.4-13.6,2.2-27.3,3.1-41
	c1.5-24.1,3.1-48.2,4.1-72.4c1.1-27.1,1.6-54.2,2.3-81.4c0.4-14.1,5.1-19.9,19-23.4c2.1-0.5,4.1-1.2,6.2-2
	c15.7-6.1,14.4-6.2,13.3-22.9c-1.6-22.3-2.1-44.8-0.8-67.1C56.3,23.5,70.7,9,87.2,8.4c25.8-0.8,41.5,16.2,45,35.8
	c2.4,13.6,0.6,28-0.1,42c-0.6,11.9-1.9,23.8-3.3,35.6c-0.7,6,1.2,9.7,7,11.4c2.1,0.6,4,1.8,6,2.6c23.7,9.5,25,10.4,24.2,36.3
	c-1,30.5,1.1,60.6,5.4,90.8c2.9,20.2,0.3,41.2,1,61.7c0.6,15.8,3.2,31.5,3.6,47.3c0.5,19.1-6.3,23.7-30.9,26.1
	c-2.1,18-4.9,36.5-6.2,55c-0.9,13-1,26.2,0.6,39.1c5,41.1-4.5,80.5-11.8,120.2c-2.7,14.4-3.9,29.1-5.3,43.7c-0.3,2.9,1.9,6.1,3,9.1
	c1.7,4.6,3.4,9.1,5.9,15.8c-10.7,0-19.2,0.4-27.7-0.3c-1.7-0.1-4.8-4.8-4.2-6.3c14.7-37.9,3.9-76.8,5.1-115.2
	c0.3-7.9,1.9-15.7,2.3-23.6c0.5-8.2,0.3-16.4,0.3-24.6c-0.1-16.1,0.8-32.4-0.6-48.4c-3-34.1-7.1-68.2-10.8-102.2
	c-1.2-0.5-2.4-0.9-3.6-1.4c-1.6,2.5-4.4,4.9-4.8,7.6c-3.8,32.7-7.5,65.4-10.7,98.2c-0.8,7.8,0.5,15.9,1,23.8
	c0.2,2.9,1.1,5.8,0.8,8.6c-5.2,43,3.4,86.2-1.3,129.4c-1.6,14.5,3.4,29.8,6.6,44.5c1.6,7.3,1.1,10.3-6.9,10
	C69.5,680.8,62.3,681,53.8,681z M138.8,203c-2.7,8-4.3,15.3-7.5,21.8c-8.5,17.2-8,34.2-0.4,51.3c10.2,22.9,21.7,45.3,21.3,71.8
	c2.7-7.9,5.1-16,4.1-23.7C150.9,284.5,144.9,244.9,138.8,203z M44,203.6c-0.9,4.3-1.6,6.7-1.9,9.2c-4.7,35.8-8.9,71.6-14.2,107.3
	c-1.5,10-1.8,18.9,5,28.8c-1.2-23.5,4.3-44.2,15.1-62.8C64.2,258.2,56.6,232.1,44,203.6z"/>
</svg>
